<svg xmlns="http://www.w3.org/2000/svg" width="81" height="81" viewBox="54 -816 1858 911" fill="#000000" preserveAspectRatio="xMidYMid meet">
  <path
    d="M311 93L311 93Q296 93 282 84L282 84Q257 69 257 38L257 38L258-19Q258-77 254-134L254-134Q254-181 250-228L250-228Q250-267 247-306L247-306Q246-337 245.50-368.50Q245-400 236-430L236-430Q227-447 227-465L227-465Q234-478 254-478L254-478Q284-472 312-460L312-460L325-459L352-459Q366-459 375-470L375-470Q408-501 429-541L429-541Q389-541 348-536L348-536Q259-532 172-527L172-527Q144-524 102-524L102-524Q71-536 58-567L58-567Q54-575 54-581L54-581Q54-591 63-599L63-599L121-598L422-616Q442-619 462-619Q482-619 502-624L502-624Q567-676 617-743L617-743Q632-764 637-790L637-790Q639-802 645-814L645-814Q653-816 660-816L660-816Q675-816 689-807L689-807Q716-794 731-771L731-771Q735-763 735-756L735-756Q735-745 727-735L727-735Q677-676 616-628L616-628Q735-633 852-643L852-643Q875-649 897-649L897-649Q923-640 941-618L941-618Q950-608 950-598L950-598Q950-590 944-581L944-581Q932-572 918-571Q904-570 890-569L890-569L517-547Q520-539 520-531L520-531Q520-522 516-513L516-513Q495-488 471-467L471-467Q597-472 722-479L722-479Q760-479 777-449L777-449Q779-442 779-435L779-435Q779-424 774-412L774-412L766-247Q755-111 755-46L755-46Q761-35 769.50-25Q778-15 778-1L778-1Q778 14 762 18L762 18Q727 23 691 23L691 23Q652 26 613 26L613 26Q588 26 563 28Q538 30 512 30L512 30Q481 31 451 33Q421 35 392.50 35Q364 35 346 39L346 39Q345 51 345 64.50Q345 78 334 87L334 87Q322 93 311 93ZM329-322L332-320L671-338L678-337Q686-337 686-345L686-345L687-404Q525-394 363-387L363-387Q344-387 326-383L326-383Q329-352 329-322L329-322ZM337-183L337-183L418-187Q549-192 681-199L681-199Q683-233 683-266L683-266Q378-251 332-247L332-247Q332-215 337-183ZM341-41L362-41Q393-41 536-47L536-47Q606-47 675-53L675-53Q675-89 678-125L678-125Q348-111 337-107L337-107Q341-74 341-41L341-41ZM389-628L389-628Q372-628 358-641L358-641L295-703Q276-717 262-736L262-736Q262-765 284-780L284-780Q292-784 300-784L300-784Q311-784 322-776L322-776Q430-711 430-666L430-666L430-659Q415-628 389-628Z" />
  <path
    d="M1342-109L1342-109L1331-109Q1314-109 1297-113L1297-113Q1295-117 1293-119L1293-119Q1280-126 1269-136Q1258-146 1258-160L1258-160L1259-205Q1259-240 1242-501L1242-501Q1238-530 1226-556L1226-556Q1226-576 1255-576L1255-576Q1290-565 1324-549L1324-549L1341-548Q1358-548 1375-552L1375-552Q1387-552 1395-559L1395-559Q1408-584 1421-609.50Q1434-635 1440-663L1440-663Q1301-654 1160-647L1160-647Q1124-649 1106-681L1106-681Q1099-692 1096.50-700.50Q1094-709 1094-713L1094-713Q1094-721 1098-728L1098-728L1111-729Q1120-729 1130.50-726.50Q1141-724 1154-724L1154-724L1801-763Q1815-763 1826.50-767Q1838-771 1847-771L1847-771Q1885-767 1910-726L1910-726Q1912-720 1912-715L1912-715Q1912-705 1903-697L1903-697Q1880-688 1848-688L1848-688Q1694-676 1540-668L1540-668Q1533-668 1533-664L1533-664Q1533-659 1536-655L1536-655Q1536-630 1519-611L1519-611Q1486-567 1486-564L1486-564Q1486-561 1488-558L1488-558Q1584-568 1716-570L1716-570Q1749-570 1771-541L1771-541L1772-530Q1772-519 1767-508L1767-508Q1760-423 1754-298L1754-298Q1750-227 1743-158L1743-158Q1732-146 1717-146L1717-146Q1690-147 1669-163L1669-163Q1655-173 1655-188L1655-188Q1655-194 1657-200L1657-200Q1664-229 1666-258.50Q1668-288 1668-317L1668-317Q1676-416 1676-496L1676-496L1334-475Q1330-471 1330-465L1330-465L1330-446L1347-146Q1347-127 1342-109ZM1156 93L1156 93L1146 93Q1142 88 1136 84L1136 84L1135 76Q1135 52 1161 43L1161 43Q1241 15 1312-32L1312-32Q1390-78 1428-159L1428-159Q1462-248 1462-340L1462-340L1461-376Q1455-396 1447-414L1447-414Q1457-432 1484-432L1484-432Q1515-432 1540-413L1540-413Q1552-404 1552-392L1552-392Q1552-189 1480-80L1480-80Q1442-27 1385 8L1385 8Q1301 59 1206 85L1206 85Q1181 93 1156 93ZM1825 95L1825 95Q1803 89 1785 73L1785 73Q1692 8 1591-46L1591-46Q1578-54 1563.50-60.50Q1549-67 1539-80L1539-80Q1535-89 1535-97L1535-97Q1535-108 1542-118L1542-118Q1553-144 1578-144L1578-144Q1588-144 1667-105L1667-105Q1741-66 1813-20L1813-20Q1843-4 1866 19L1866 19Q1873 31 1873 42L1873 42Q1873 56 1863 69L1863 69Q1851 92 1825 95Z" />
</svg>