<svg xmlns="http://www.w3.org/2000/svg" width="81" height="81" viewBox="56 -817 1853 907" fill="#000000" preserveAspectRatio="xMidYMid meet">
  <path
    d="M775-441L775-441L769-422L749-37Q774-6 774 3.50Q774 13 765.50 15Q757 17 746 18L746 18L329 32L330 67L330 69Q330 89 309.50 89Q289 89 276 76.50Q263 64 263 49L263 49L267 3L249-395Q246-431 238.50-446.50Q231-462 231-465L231-465Q231-472 245-472Q259-472 312-452L312-452L365-455Q379-467 389-479L389-479Q433-524 444-561L444-561L138-544Q120-542 104-542Q88-542 72-561Q56-580 56-593L56-593Q56-598 64-598L64-598L69-598Q87-595 102-595L102-595L503-618Q649-743 652-805L652-805Q652-817 663-817L663-817Q669-817 685-809.50Q701-802 714.50-790Q728-778 728-765Q728-752 672.50-700.50Q617-649 579-622L579-622L838-637Q868-639 880-643Q892-647 900-647Q908-647 920-638L920-638Q949-618 949-604.50Q949-591 925-589L925-589L493-564Q508-550 511-537L511-537Q511-529 500-518L500-518Q472-486 439-459L439-459L721-474L729-474Q746-474 760.50-464Q775-454 775-441ZM377-642L377-642Q332-696 276-741L276-741Q267-748 267-756.50Q267-765 278-776Q289-787 294.50-787Q300-787 326-770Q352-753 395.50-714Q439-675 439-662.50Q439-650 426.50-635.50Q414-621 404.50-621Q395-621 377-642ZM701-329L704-420L310-399L314-310L701-329ZM696-188L699-276L316-258L320-172L696-188ZM690-35L694-134L322-119L326-23L690-35Z" />
  <path
    d="M1262-126L1262-126Q1268-167 1268-179L1268-179L1268-188L1250-500Q1247-540 1240-553Q1233-566 1233-573.50Q1233-581 1248-581Q1263-581 1317-556L1317-556L1397-561Q1434-622 1442-642.50Q1450-663 1450-675L1450-675L1450-684L1188-667Q1170-665 1151.50-665Q1133-665 1121.50-676Q1110-687 1103-701.50Q1096-716 1096-721Q1096-726 1102-726L1102-726Q1104-726 1114.50-723Q1125-720 1147-720L1147-720L1161-720L1795-759Q1822-760 1835-765.50Q1848-771 1853.50-771Q1859-771 1873-763L1873-763Q1909-740 1909-722L1909-722Q1909-712 1887-710L1887-710L1502-687Q1527-672 1527-661.50Q1527-651 1510.50-629.50Q1494-608 1487-598L1487-598L1463-565L1708-580L1714-580Q1732-580 1749-569Q1766-558 1766-547.50Q1766-537 1762.50-531Q1759-525 1758-520L1758-520L1740-215L1737-159L1736-136L1736-133Q1734-114 1716-116L1716-116Q1708-116 1696-123L1696-123Q1663-140 1670-166.50Q1677-193 1680-211L1680-211L1680-220L1693-523L1312-503L1326-225L1331-133L1332-110L1332-107Q1332-88 1312-88Q1292-88 1277-102Q1262-116 1262-126ZM1473-339L1473-380Q1473-403 1465-413.50Q1457-424 1457-429L1457-429Q1457-441 1470-441Q1483-441 1498-438L1498-438Q1541-431 1541-405L1541-405Q1540-344 1537-309L1537-309Q1523-121 1427-36L1427-36Q1355 27 1253 62L1253 62Q1211 77 1182.50 83.50Q1154 90 1151 90L1151 90Q1138 90 1138 78Q1138 66 1160 58L1160 58Q1257 23 1331.50-29.50Q1406-82 1435-147L1435-147Q1473-234 1473-339L1473-339ZM1867 41L1867 41Q1867 59 1853.50 74.50Q1840 90 1832.50 90Q1825 90 1813 81L1813 81Q1703 2 1564-70L1564-70Q1548-79 1548-90.50Q1548-102 1557.50-116Q1567-130 1579-130Q1591-130 1683.50-80.50Q1776-31 1845 16L1845 16Q1867 31 1867 41Z" />
</svg>
