<svg xmlns="http://www.w3.org/2000/svg" width="81" height="81" viewBox="74 -810 1829 897" fill="#000000" preserveAspectRatio="xMidYMid meet">
  <path d="M320-484L319-601Q205-560 162-560L162-560Q148-560 148-568L148-568Q148-578 174.50-588Q201-598 253.50-620.50Q306-643 370-680Q434-717 440-736L440-736Q444-746 449.50-746Q455-746 465-736L465-736Q492-709 492-686L492-686Q492-680 485.50-673Q479-666 381-623L381-623L382-487L561-497Q544-593 538-673.50Q532-754 528.50-766.50Q525-779 517.50-788.50Q510-798 510-804Q510-810 519.50-810Q529-810 546-806L546-806Q591-797 593-779L593-779Q609-591 624-500L624-500L821-511Q842-513 855.50-516.50Q869-520 875-520Q881-520 893-512L893-512Q923-492 923-473L923-473Q923-460 897-458L897-458L633-443Q653-335 694-237L694-237Q743-306 772-376L772-376Q782-398 782-410L782-410L781-419L781-424Q781-434 787-434Q793-434 807-426L807-426Q847-401 847-382L847-382Q847-376 832-346L832-346Q785-255 722-182L722-182Q784-64 870 6L870 6Q874 10 878 10Q882 10 885 4L885 4Q904-52 919-132L919-132Q928-177 939.50-177Q951-177 952-116L952-116Q952 1 934 52L934 52Q921 87 894 87L894 87Q846 87 784 17Q722-53 675-136L675-136Q588-51 491 0L491 0Q453 20 443 20Q433 20 433 14L433 14Q433 3 459-16L459-16Q580-105 650-185L650-185Q621-244 604-303Q587-362 570-440L570-440L382-430L383-285Q457-308 488-319Q519-330 531.50-330Q544-330 544-322Q544-314 534-306L534-306Q512-288 384-234L384-234L385-18L387 28Q387 48 369 61.50Q351 75 340 75Q329 75 310 64L310 64Q264 40 218.50 1Q173-38 173-59L173-59Q173-67 183-67Q193-67 230.50-45Q268-23 322-3L322-3L321-211Q315-209 240-182Q165-155 147-155L147-155Q115-166 98-197L98-197Q90-212 90-217Q90-222 100-222L100-222L112-222Q155-222 321-267L321-267L320-426L151-417L131-417Q108-417 101-422L101-422Q80-441 74-475L74-475Q74-479 78-479L78-479L124-473L132-473L320-484ZM827-589L827-589Q827-572 805-554L805-554Q796-546 789.50-546Q783-546 774-555L774-555Q714-623 664-663L664-663Q653-674 653-681Q653-688 666.50-699.50Q680-711 686.50-711Q693-711 713.50-696.50Q734-682 780.50-639.50Q827-597 827-589Z" />
  <path d="M1601-757L1601-764L1599-780Q1599-792 1609-792L1609-792Q1612-792 1628-785L1628-785Q1673-765 1673-744L1673-744Q1673-717 1609-584L1609-584L1860-599L1864-599Q1877-599 1890-589.50Q1903-580 1903-565L1903-565L1900-542Q1892-273 1864-47L1864-47Q1848 85 1794 85L1794 85Q1771 85 1756.50 75.50Q1742 66 1719.50 49Q1697 32 1672 11Q1647-10 1629-28Q1611-46 1611-54Q1611-62 1622.50-62Q1634-62 1669-41Q1704-20 1773 7L1773 7L1775 7Q1781 7 1784-1L1784-1Q1828-173 1834-542L1834-542L1583-526Q1539-450 1505-405.50Q1471-361 1460-361L1460-361Q1455-361 1455-370.50Q1455-380 1485-435.50Q1515-491 1558-605.50Q1601-720 1601-757L1601-757ZM1268-742L1268-742Q1268-745 1266-757L1266-757Q1266-769 1278-769L1278-769Q1300-769 1318-755Q1336-741 1336-729Q1336-717 1300-650L1300-650Q1268-594 1247-563L1247-563L1388-571L1400-571Q1429-571 1438-548L1438-548Q1441-541 1441-540L1441-540L1436-520L1420-75Q1444-44 1444-33.50Q1444-23 1436-21Q1428-19 1415-18L1415-18L1192-10L1193 23L1193 26Q1193 48 1176 48L1176 48Q1153 48 1139.50 36.50Q1126 25 1126 12L1126 12L1133-38L1124-505Q1124-534 1112-553L1112-553Q1105-567 1105-572.50Q1105-578 1120-578Q1135-578 1182-560L1182-560L1191-560Q1268-705 1268-742ZM1370-331L1375-516L1183-506L1186-322L1370-331ZM1743-226L1743-226Q1743-206 1717-192L1717-192Q1707-186 1700.50-186Q1694-186 1681-203L1681-203Q1650-253 1611.50-299Q1573-345 1557-360.50Q1541-376 1541-385Q1541-394 1552-404.50Q1563-415 1571.50-415Q1580-415 1604.50-391.50Q1629-368 1686-303Q1743-238 1743-226ZM1362-72L1368-277L1187-269L1191-66L1362-72Z" />
</svg>
