<svg xmlns="http://www.w3.org/2000/svg" width="81" height="81" viewBox="55 -817 1930 930" fill="#000000" preserveAspectRatio="xMidYMid meet">
    <path
        d="M403-555L403-555Q375-555 354-579L354-579Q348-589 348-597L348-597L348-617L347-630Q160-618 149-618L149-618Q128-618 111-631L111-631Q87-652 85-681L85-681Q95-690 108-690L108-690Q116-690 125-686L125-686L154-685L184-686Q213-689 242-689L242-689Q289-693 335-694L335-694Q335-715 328-735L328-735Q323-747 313.50-755.50Q304-764 302-778L302-778Q305-790 316-792Q327-794 336-794L336-794Q354-793 373-789.50Q392-786 402-769L402-769Q412-737 415-701L415-701Q464-701 496-704L496-704Q535-704 573-709L573-709Q573-725 576.50-737.50Q580-750 580-760L580-760L579-770Q578-780 574-788.50Q570-797 570-805L570-805L570-809Q577-817 586-817L586-817Q596-817 613-810L613-810Q643-801 663-778L663-778Q668-769 668-760L668-760Q668-753 665-746L665-746Q659-729 656-713L656-713Q739-718 821-725L821-725Q833-728 841.50-730Q850-732 854-732L854-732Q863-732 871-727L871-727Q899-714 911-685L911-685Q910-663 887-661L887-661Q798-656 711-649L711-649Q692-649 673.50-647Q655-645 636-645L636-645Q625-643 621-631L621-631Q613-614 604-597Q595-580 579-570L579-570Q571-565 558-565L558-565Q554-570 549-575Q544-580 544-587L544-587Q546-614 555-641L555-641L426-633L433-583Q433-555 403-555ZM594-321L594-321Q590-326 585-330L585-330Q585-346 596-358L596-358Q648-405 689-460L689-460L715-512Q619-495 522-483L522-483Q488-477 453-476L453-476Q360-464 266-457L266-457Q233-457 210-454L210-454L194-453Q174-453 156-462L156-462Q154-467 154-472L154-472Q154-480 159-486L159-486Q183-503 212-504L212-504Q388-527 621-572L621-572Q651-578 681.50-584Q712-590 736-611L736-611Q783-611 807-563L807-563Q809-557 809-551L809-551Q809-538 796-529L796-529Q781-523 764.50-521Q748-519 733-514L733-514Q739-507 746-505L746-505Q787-492 787-463L787-463Q787-453 781-444L781-444Q725-377 649-336L649-336Q623-322 594-321ZM503-335L503-335L498-335L498-338Q489-339 485-346L485-346L450-404Q443-412 438-420.50Q433-429 433-437L433-437L433-443Q442-462 463-469L463-469L463-472Q495-472 515-445L515-445Q540-419 558-386L558-386Q560-381 560-375L560-375Q560-355 537-342L537-342Q521-335 503-335ZM348-300L348-300Q332-301 320-314L320-314Q285-352 248-389L248-389Q239-399 239-410L239-410L240-418Q246-430 255-439Q264-448 276-448L276-448L281-448Q323-426 356-392L356-392Q380-375 391-349L391-349Q387-311 348-300ZM512 108L512 108L508 108Q472 102 453 72L453 72L452 55L453 37Q456 20 456 3L456 3Q456-34 456.50-70.50Q457-107 455-143L455-143L393-93Q247 16 103 55L103 55Q92 59 80 59L80 59Q72 59 64 57L64 57Q55 50 55 36L55 36Q62 18 80 12L80 12Q251-67 394-190L394-190Q279-184 164-180L164-180Q138-183 122.50-203Q107-223 105-247L105-247Q112-255 120-255L120-255Q148-251 179-251L179-251Q221-251 261-255L261-255Q303-255 343-259L343-259Q400-259 455-264L455-264Q455-294 444-315L444-315Q441-320 441-325L441-325Q441-332 449-337L449-337Q510-337 531-310L531-310Q537-294 537-269L537-269L548-268L711-276Q742-279 773-279.50Q804-280 833-289L833-289Q871-289 899-250L899-250Q901-244 901-239L901-239Q901-224 885-216L885-216Q841-210 797-209L797-209Q697-205 598-198L598-198Q740-97 905-39L905-39Q932-30 958-18L958-18Q967-11 967-2L967-2Q967 6 957.50 17Q948 28 935.50 39Q923 50 907 50L907 50Q858 36 813 15L813 15Q671-48 549-143L549-143Q544-148 537-148L537-148L539 58Q539 77 534 95L534 95Q526 108 512 108Z" />
    <path
        d="M1426-306L1396-305Q1348-305 1323-348L1323-348Q1319-355 1319-361L1319-361Q1319-376 1333-376L1333-376L1348-376Q1378-373 1407-373L1407-373Q1437-373 1466-376L1466-376Q1506-376 1542-380L1542-380L1543-402Q1543-430 1539-458L1539-458Q1539-484 1537-510.50Q1535-537 1535-563L1535-563Q1494-559 1452-559L1452-559L1418-560Q1382-569 1374-607L1374-607Q1376-625 1395-625L1395-625Q1416-623 1438-623L1438-623Q1485-623 1557-632L1557-632Q1543-642 1530-657L1530-657Q1506-692 1475-722L1475-722Q1462-732 1460-747L1460-747Q1460-773 1489-782L1489-782Q1510-782 1523-770L1523-770Q1567-736 1600-690L1600-690Q1604-683 1604-676L1604-676Q1604-655 1580-639L1580-639L1579-632Q1602-633 1623-635L1623-635Q1638-648 1648-666L1648-666Q1683-716 1708-773L1708-773Q1711-793 1720-812L1720-812Q1727-815 1734-815L1734-815Q1749-815 1763-803L1763-803Q1782-793 1793-773L1793-773Q1793-739 1707-638L1707-638L1832-647Q1846-650 1855.50-652Q1865-654 1870-654L1870-654Q1879-654 1888-650L1888-650Q1916-639 1929-613L1929-613L1930-607Q1930-595 1916-589L1916-589Q1886-583 1868-583Q1850-583 1845-583L1845-583Q1819-583 1793-579L1793-579L1735-575Q1731-517 1731-458L1731-458Q1728-431 1728-389L1728-389L1732-386L1806-391Q1847-392 1886-395L1886-395Q1900-395 1910.50-397.50Q1921-400 1930-400L1930-400L1941-399Q1959-393 1972-379Q1985-365 1985-347L1985-347L1985-342Q1974-330 1958-329L1958-329Q1834-324 1711-317L1711-317Q1685-317 1658.50-315Q1632-313 1605-313L1605-313Q1569-313 1532-310L1532-310Q1478-309 1426-306L1426-306ZM1611-385L1639-384Q1649-384 1658-389L1658-389Q1658-424 1659-453Q1660-482 1660-506L1660-506Q1660-549 1663-570L1663-570Q1636-567 1609-566L1609-566Q1609-476 1611-385L1611-385ZM1306-521L1306-521Q1288-521 1255-565L1255-565Q1207-626 1152-682L1152-682Q1150-688 1150-694L1150-694Q1150-708 1161-720Q1172-732 1185-732L1185-732Q1207-732 1258-681L1258-681Q1319-626 1352-578L1352-578Q1354-572 1354-567L1354-567Q1354-546 1328-529L1328-529Q1317-521 1306-521ZM1767-402L1767-402Q1760-402 1753-407L1753-407Q1751-413 1751-418L1751-418Q1751-428 1758-438L1758-438Q1776-471 1789-505L1789-505Q1796-534 1797-564L1797-564L1805-569Q1861-566 1872-525L1872-525Q1858-487 1831-454L1831-454Q1811-426 1781-407L1781-407Q1774-402 1767-402ZM1485-394L1485-394Q1470-394 1460-406L1460-406L1427-468Q1402-502 1402-513L1402-513Q1402-525 1413-533L1413-533Q1431-544 1450-545L1450-545Q1494-507 1519-453L1519-453Q1526-443 1526-433L1526-433Q1526-423 1519-412L1519-412Q1509-396 1498.50-395Q1488-394 1485-394ZM1230 51L1230 51Q1204 51 1191 18L1191 18Q1191-5 1195-28.50Q1199-52 1202-75L1202-75L1213-370Q1187-368 1161.50-363Q1136-358 1110-358L1110-358Q1088-360 1072-375Q1056-390 1047-409L1047-409L1047-425Q1047-437 1068-437L1068-437Q1075-437 1082-435L1082-435L1097-434Q1121-434 1254-454L1254-454Q1280-454 1298-432L1298-432Q1306-423 1306-413L1306-413Q1306-404 1301-395L1301-395Q1294-382 1294-371L1294-371L1294-346Q1289-269 1287-189L1287-189Q1286-143 1283-96L1283-96L1290-95Q1327-119 1363-145L1363-145Q1383-161 1407-166L1407-166Q1413-164 1417.50-160.50Q1422-157 1422-150L1422-150Q1422-134 1413-120L1413-120Q1367-51 1301-1L1301-1Q1274 28 1240 49L1240 49Q1235 51 1230 51ZM1505 113L1505 113Q1494 113 1478 104L1478 104Q1466 97 1455 88Q1444 79 1443 65L1443 65Q1446 28 1446-9L1446-9Q1442-117 1433-224L1433-224Q1426-252 1421-279L1421-279Q1421-288 1429-295L1429-295L1436-295Q1455-295 1473.50-285.50Q1492-276 1513-269L1513-269Q1633-275 1754-283L1754-283L1789-283Q1803-283 1815-277L1815-277Q1844-265 1850-237L1850-237Q1841-187 1829-75L1829-75Q1825-50 1825-9L1825-9Q1845 9 1851 33L1851 33Q1849 43 1840.50 46.50Q1832 50 1824 50L1824 50Q1676 55 1527 58L1527 58Q1527 71 1527 84Q1527 97 1519 108L1519 108Q1512 113 1505 113ZM1516-145L1516-145Q1636-146 1757-151L1757-151Q1760-181 1760-211L1760-211L1513-200Q1513-172 1516-145ZM1524-10L1524-10Q1614-14 1703-14L1703-14Q1727-14 1749-17L1749-17Q1750-44 1753-71L1753-71Q1753-76 1753-81Q1753-86 1747-86L1747-86L1520-78Q1520-44 1524-10Z" />
</svg>