<svg xmlns="http://www.w3.org/2000/svg" width="81" height="81" viewBox="58 -816 1925 924" fill="#000000" preserveAspectRatio="xMidYMid meet">
    <path
        d="M642-710L642-710L795-719Q825-720 839-725Q853-730 861-730Q869-730 880-722L880-722Q908-701 908-686L908-686Q908-678 886-676L886-676L622-660Q608-629 593-601Q578-573 564-573L564-573Q553-573 553-586Q553-599 557-611L557-611L571-657L412-648L421-593L422-585Q422-569 404-569Q386-569 371.50-579Q357-589 357-603L357-603L357-626Q357-634 355-642L355-642L355-645L171-634Q164-633 158-633L158-633L148-633Q123-633 115-640L115-640Q89-665 89-679L89-679Q89-685 97-685L97-685Q101-685 111-682.50Q121-680 139-680L139-680L347-692L340-732Q337-752 323.50-765.50Q310-779 310-784L310-784Q310-792 328.50-792Q347-792 368.50-788Q390-784 394-763L394-763L405-696L583-706L592-763L592-770Q592-787 586.50-797Q581-807 581-811.50Q581-816 588-816Q595-816 612-809.50Q629-803 644.50-792.50Q660-782 660-771Q660-760 642-710ZM197-465L187-465Q158-465 158-476L158-476Q158-489 194-495L194-495Q505-539 705-585L705-585Q725-590 746-609L746-609Q751-612 755-612Q759-612 771-602L771-602Q805-576 805-554L805-554Q805-543 792-540L792-540Q520-487 197-465L197-465ZM731-517L731-517Q731-525 740.50-525Q750-525 763.50-517Q777-509 787-498.50Q797-488 797-482Q797-476 795-474L795-474Q746-416 704.50-385Q663-354 636-342.50Q609-331 602.50-331Q596-331 596-338Q596-345 610-358L610-358Q723-463 731-517ZM490-356L490-356Q476-392 437-442L437-442Q431-450 431-458L431-458Q431-472 452-478L452-478L460-481Q476-481 513.50-432.50Q551-384 551-374.50Q551-365 541-350.50Q531-336 514.50-336Q498-336 490-356ZM367-367L367-367Q380-355 380-348Q380-341 375-332.50Q370-324 362-316.50Q354-309 344-309Q334-309 309-338.50Q284-368 232-412L232-412Q226-417 226-425Q226-433 235-442L235-442Q246-456 255-456Q264-456 288-436.50Q312-417 367-367ZM115-247L115-247Q136-240 157-240L157-240L167-240L466-255L466-282Q466-304 459-314.50Q452-325 452-329Q452-333 459-333Q466-333 482-330L482-330Q526-323 526-304L526-304L526-258L795-271Q819-273 830.50-277.50Q842-282 849-282Q856-282 876-266.50Q896-251 896-240.50Q896-230 888.50-227.50Q881-225 870-224L870-224L568-209Q734-84 948-12L948-12Q964-6 964 1L964 1Q964 4 956 14L956 14Q932 43 914 43L914 43Q910 43 874 29.50Q838 16 782-11L782-11Q641-78 526-174L526-174L526 81Q526 104 511 104L511 104Q508 104 495.50 99.50Q483 95 471.50 86Q460 77 460 68.50Q460 60 463 43Q466 26 466-5L466-5L466-168Q338-54 204 7L204 7Q150 32 115 42.50Q80 53 69 53Q58 53 58 44L58 44Q58 31 82 22L82 22Q243-47 420-202L420-202L190-191L166-190Q151-190 136-198.50Q121-207 111-238L111-238Q110-240 110-243.50Q110-247 115-247Z" />
    <path
        d="M1218-46L1230-394L1126-383Q1120-382 1116-382L1116-382L1106-382Q1081-382 1065-401Q1049-420 1049-430Q1049-440 1055-440L1055-440Q1079-436 1088-436L1088-436L1100-436Q1104-436 1108-437L1108-437L1262-455Q1270-455 1285-444.50Q1300-434 1300-423.50Q1300-413 1293-407L1293-407L1287-401L1275-76Q1292-88 1342.50-128Q1393-168 1404-168.50Q1415-169 1415.50-163Q1416-157 1399.50-138Q1383-119 1332-59.50Q1281 0 1258 14.50Q1235 29 1224.50 30.50Q1214 32 1198 21Q1182 10 1169.50-3.50Q1157-17 1156-23L1156-23Q1156-28 1174-31.50Q1192-35 1218-46L1218-46ZM1380-624L1384-624Q1403-619 1429-619L1429-619L1442-619L1632-631Q1673-685 1699.50-733Q1726-781 1726.50-798.50Q1727-816 1735-816Q1743-816 1754-809L1754-809Q1788-790 1788-774.50Q1788-759 1750.50-710.50Q1713-662 1686-634L1686-634L1814-642Q1848-644 1859.50-648.50Q1871-653 1877.50-653Q1884-653 1895-646L1895-646Q1926-630 1926-614L1926-614Q1926-601 1904-599L1904-599L1727-589L1722-380L1874-387Q1913-390 1922.50-392.50Q1932-395 1937-395Q1942-395 1954-389L1954-389Q1983-371 1983-352L1983-352Q1983-341 1964-339L1964-339L1414-317L1393-317Q1366-317 1356-325L1356-325Q1330-346 1324-364L1324-364Q1324-370 1333-370L1333-370L1337-370Q1357-365 1386-365L1386-365L1397-365L1552-372L1545-578L1461-573Q1452-572 1445-572L1445-572L1432-572Q1415-572 1402.50-578Q1390-584 1378-614L1378-614Q1377-617 1377-620.50Q1377-624 1380-624L1380-624ZM1554-649L1554-649Q1513-708 1476-740L1476-740Q1467-750 1467-757Q1467-764 1477-773.50Q1487-783 1495-783Q1503-783 1521.50-767Q1540-751 1560-729.50Q1580-708 1594.50-688.50Q1609-669 1609-664Q1609-659 1598.50-645.50Q1588-632 1577-632Q1566-632 1554-649ZM1670-378L1674-586L1599-581L1603-375L1670-378ZM1813-562L1813-562L1812-572L1812-575Q1812-585 1818-585L1818-585Q1828-585 1851-571Q1874-557 1874-544L1874-544Q1874-539 1870-530L1870-530Q1827-450 1778-408L1778-408Q1760-391 1755-391Q1750-391 1750-400Q1750-409 1761-426L1761-426Q1813-516 1813-562ZM1434-552L1434-552Q1450-552 1514-445L1514-445Q1526-426 1526-415.50Q1526-405 1509-398Q1492-391 1488-391L1488-391Q1476-391 1470-406L1470-406Q1447-461 1425-491Q1403-521 1403-527Q1403-533 1415-542.50Q1427-552 1434-552ZM1837-216L1815-6Q1845 22 1845 35L1845 35Q1845 44 1823 46L1823 46L1514 52L1515 89L1515 95Q1515 108 1507 108Q1499 108 1485.50 102Q1472 96 1461.50 86.50Q1451 77 1451 68L1451 68L1451 66Q1455 39 1455 9L1455 9L1455-9L1444-197Q1442-235 1436.50-255Q1431-275 1431-282Q1431-289 1440.50-289Q1450-289 1506-261L1506-261L1780-276L1791-276Q1809-276 1826-264Q1843-252 1843-241.50Q1843-231 1840.50-225.50Q1838-220 1837-216L1837-216ZM1771-140L1776-222L1500-211L1505-132L1771-140ZM1763-3L1768-92L1507-84L1512 1L1763-3ZM1283-561L1283-561Q1232-631 1176-685L1176-685Q1165-696 1165-702.50Q1165-709 1173-721Q1181-733 1190.50-733Q1200-733 1217.50-718.50Q1235-704 1258-682.50Q1281-661 1302-638Q1323-615 1337-597.50Q1351-580 1351-571Q1351-562 1337-549Q1323-536 1312-536Q1301-536 1283-561Z" />
</svg>