<svg xmlns="http://www.w3.org/2000/svg" width="81" height="81" viewBox="32 -813 1924 913" fill="#000000" preserveAspectRatio="xMidYMid meet">
  <path d="M725-739L725-739L722-752Q722-761 732-761L732-761Q736-761 752-756L752-756Q796-740 796-719L796-719Q796-715 777-676.50Q758-638 723-586L723-586L820-592Q829-593 839.50-594Q850-595 857.50-597.50Q865-600 870.50-600Q876-600 888-593L888-593Q920-574 920-557L920-557Q920-548 897-545L897-545L723-535L722-418L787-422Q814-424 823-427Q832-430 838.50-430Q845-430 856.50-422.50Q868-415 877-404.50Q886-394 886-387L886-387Q886-376 864-374L864-374L721-367L721-256L792-260Q801-261 811-262Q821-263 829.50-266Q838-269 843-269Q848-269 860-262L860-262Q892-242 892-224L892-224Q892-213 870-211L870-211L720-204L719-62L868-67Q893-69 904-72.50Q915-76 921-76Q927-76 939-68L939-68Q970-46 970-30L970-30Q970-18 948-16L948-16L519 0L519 75Q519 100 501 100L501 100L488 96Q475 93 462 84Q449 75 449 63Q449 51 453.50 28.50Q458 6 458-17L458-17L461-477Q424-432 395.50-404.50Q367-377 359.50-377Q352-377 352-385Q352-393 364-408L364-408Q433-499 473-578Q513-657 530.50-710.50Q548-764 548-776L548-776L544-800Q544-809 554-809Q564-809 580-802L580-802Q622-784 622-767Q622-750 588.50-682.50Q555-615 529-573L529-573L669-582Q725-698 725-731L725-731Q725-735 725-739ZM284-279L283-4L284 21Q284 48 268 63Q252 78 238.50 78Q225 78 199 61Q173 44 131-1Q89-46 89-55.50Q89-65 97.50-65Q106-65 137-42Q168-19 220-1L220-1L221-246Q105-184 81-184L81-184Q69-184 50.50-203Q32-222 32-238L32-238Q32-245 42-245L42-245Q86-245 222-299L222-299L223-494L145-488Q138-487 131-487L131-487L116-487Q95-487 87-492L87-492Q66-513 59-534L59-534Q57-538 57-539L57-539Q57-544 66-544L66-544L69-544Q89-540 110-540L110-540L124-540L223-547L224-718Q224-743 214.50-758.50Q205-774 205-778L205-778Q205-785 213.50-785Q222-785 239-782L239-782Q286-772 286-745L286-745L285-552L329-555Q348-557 358.50-562Q369-567 375-567Q381-567 393-559L393-559Q426-537 426-521L426-521Q426-510 404-508L404-508L285-499L284-324Q331-343 368.50-361.50Q406-380 415.50-380Q425-380 425-372L425-372Q425-357 284-279L284-279ZM663-415L665-531L516-523L517-407L663-415ZM661-253L663-363L517-356L518-246L661-253ZM659-59L661-201L518-194L518-54L659-59Z" />
  <path d="M1314-604L1314-609Q1315-612 1315-616L1315-616L1315-627Q1315-630 1314-633L1314-633L1163-624Q1156-623 1150-623L1150-623L1139-623Q1130-623 1126-624L1126-624Q1113-624 1099-642Q1085-660 1085-670Q1085-680 1090.50-680Q1096-680 1105-677.50Q1114-675 1135-675L1135-675L1146-675L1306-684L1298-730Q1293-755 1275-772L1275-772Q1270-777 1270-781L1270-781Q1270-792 1302-792L1302-792Q1351-792 1354-763L1354-763L1366-688L1616-702Q1627-747 1627-766Q1627-785 1623.50-792.50Q1620-800 1620-805L1620-805Q1620-813 1630.50-813Q1641-813 1656-806L1656-806Q1697-790 1697-772L1697-772Q1697-768 1695-762L1695-762L1674-705L1807-713Q1838-716 1848.50-719.50Q1859-723 1866-723Q1873-723 1884-716L1884-716Q1914-698 1914-680L1914-680Q1914-668 1890-666L1890-666L1649-652Q1625-602 1611-587Q1597-572 1591-572Q1585-572 1585-583.50Q1585-595 1590-608L1590-608L1603-649L1374-636L1381-593L1382-586Q1382-567 1362-567Q1342-567 1328-577Q1314-587 1314-604L1314-604ZM1840-482L1447-460Q1381-358 1297-274L1297-274L1296 67Q1296 85 1277 85L1277 85Q1267 85 1255 79L1255 79Q1229 69 1229 50L1229 50Q1229 47 1229 44Q1229 41 1232.50 25Q1236 9 1236-19L1236-19L1238-220Q1155-148 1079-106L1079-106Q1050-90 1041-90Q1032-90 1032-99Q1032-108 1052-122L1052-122Q1153-198 1239-290L1239-290L1239-297Q1239-318 1231-331Q1223-344 1223-351Q1223-358 1237.50-358Q1252-358 1285-342L1285-342Q1333-400 1371-456L1371-456L1222-448Q1214-447 1206-447L1206-447L1193-447Q1173-447 1165-455L1165-455Q1140-480 1140-491.50Q1140-503 1148-503L1148-503Q1152-503 1161.50-501Q1171-499 1191-499L1191-499L1202-499L1403-510Q1437-570 1437-596L1437-596L1437-602Q1437-620 1448-620L1448-620Q1464-620 1484.50-600.50Q1505-581 1505-573.50Q1505-566 1496.50-547.50Q1488-529 1478-514L1478-514L1759-529Q1785-531 1795-534.50Q1805-538 1811.50-538Q1818-538 1830-531L1830-531Q1862-512 1862-495L1862-495Q1862-484 1840-482L1840-482ZM1654-228L1654-228Q1664-212 1669-195L1669-195L1849-204Q1877-207 1887-210.50Q1897-214 1904.50-214Q1912-214 1924-206L1924-206Q1956-186 1956-169L1956-169Q1956-156 1930-154L1930-154L1684-142Q1692-104 1692-47L1692-47L1692-25Q1692 53 1668 84L1668 84Q1657 98 1642.50 98Q1628 98 1597 83.50Q1566 69 1519.50 31.50Q1473-6 1473-18L1473-18Q1473-23 1481.50-23Q1490-23 1533-2.50Q1576 18 1618 28L1618 28L1622 28Q1633 28 1633-34.50Q1633-97 1624-139L1624-139L1394-128L1376-128Q1355-128 1347-135.50Q1339-143 1331.50-156Q1324-169 1324-178Q1324-187 1329.50-187Q1335-187 1346-184Q1357-181 1373-181L1373-181L1381-181L1607-192Q1599-215 1581-237L1581-237Q1576-245 1576-253Q1576-261 1589-270.50Q1602-280 1611.50-280Q1621-280 1628-271L1628-271Q1680-308 1719-351L1719-351L1515-334Q1497-332 1484-332Q1471-332 1459-342.50Q1447-353 1440.50-365.50Q1434-378 1434-384Q1434-390 1439.50-390Q1445-390 1452.50-387.50Q1460-385 1479-385L1479-385L1749-405L1758-405Q1780-405 1794-394Q1808-383 1808-372Q1808-361 1799.50-354.50Q1791-348 1774-328L1774-328Q1733-284 1654-228Z" />
</svg>
