<svg xmlns="http://www.w3.org/2000/svg" width="81" height="81" viewBox="26 -811 1929 916" fill="#000000" preserveAspectRatio="xMidYMid meet">
  <path
    d="M500 105L500 105Q475 102 456 87.50Q437 73 437 53L437 53Q437 47 439 40L439 40Q446-19 446-79L446-79L445-118Q449-281 449-443L449-443Q415-409 373-388L373-388Q369-388 361-390L361-390Q361-401 364-411L364-411Q376-435 393-457Q410-479 422-504L422-504Q395-489 362.50-489Q330-489 298-484L298-484L298-340Q401-383 411-385L411-385Q421-385 430-380L430-380Q432-375 432-370L432-370Q432-349 297-271L297-271L297 19Q295 61 256 81L256 81L243 82Q215 82 192 61L192 61Q139 20 98-33L98-33Q86-47 86-70L86-70Q93-77 102-79L102-79L121-72Q164-41 212-21L212-21Q214-32 214-44L214-44L213-228Q112-175 88-175L88-175Q80-175 72-177L72-177Q33-200 26-243L26-243Q34-254 47-254L47-254Q91-258 132.50-273Q174-288 214-305L214-305Q216-391 216-477L216-477Q188-477 166.50-475Q145-473 130-473L130-473L101-474Q74-482 62-509L62-509Q56-518 54.50-524.50Q53-531 53-533L53-533Q53-541 59-548L59-548L125-545Q170-548 214-553L214-553L216-703Q216-715 213.50-727Q211-739 205-749Q199-759 198-771L198-771Q201-786 217-786L217-786Q253-786 284-766L284-766Q298-756 298-736L298-736Q299-649 299-560L299-560Q335-560 371-571L371-571Q388-570 400-558.50Q412-547 422-534L422-534L425-512Q496-619 533-756L533-756L535-769Q535-775 533-780.50Q531-786 531-791L531-791Q531-799 535-806L535-806Q545-810 555-810L555-810Q574-810 606-790L606-790Q617-784 623.50-775Q630-766 630-757L630-757L629-748Q594-661 547-580L547-580Q657-588 767-594L767-594Q811-595 855-602L855-602L860-602Q898-602 923-558L923-558Q922-542 909-534L909-534Q881-528 851-528L851-528Q834-528 816.50-526Q799-524 781-524L781-524Q750-524 728-521L728-521L728-426Q772-426 816-434L816-434Q823-436 830-436L830-436Q841-436 851-431L851-431Q876-417 889-390L889-390L890-384Q890-371 875-364L875-364Q848-359 819-359L819-359Q727-359 727-345L727-345L728-267Q763-268 797-271L797-271Q808-272 818.50-275Q829-278 840-278L840-278Q869-269 888-245L888-245Q896-236 896-224L896-224L895-217Q880-202 860-202L860-202L727-194L727-76Q761-76 795-78Q829-80 863-80L863-80Q879-81 890.50-84.50Q902-88 910-88L910-88Q918-88 927-85L927-85Q961-68 973-33L973-33Q966-10 942-10L942-10L742-1Q711-1 680 1Q649 3 617 3L617 3L528 8L527 78Q523 105 500 105ZM526-416L526-416Q544-416 562-417.50Q580-419 598-419L598-419L646-422L650-427L651-516Q588-515 524-508L524-508Q524-462 526-416ZM526-340L527-257Q588-259 648-264L648-264L648-349Q618-349 588-347Q558-345 528-344L528-344L526-340ZM527-126L526-68Q586-68 645-72L645-72Q647-131 647-191L647-191Q587-189 526-184L526-184L527-126ZM766-606L766-606Q756-606 748-612Q740-618 733-625L733-625Q694-659 651-687L651-687Q637-698 637-712L637-712Q637-718 640-725L640-725Q645-739 655-745.50Q665-752 672-752L672-752Q679-752 686-749L686-749Q734-724 775-690L775-690Q788-680 797-668Q806-656 806-644L806-644L805-635Q792-613 766-606Z" />
  <path
    d="M1366-550L1366-550Q1339-550 1319-570L1319-570Q1310-579 1309-591.50Q1308-604 1308-615L1308-615Q1279-615 1249.50-612.50Q1220-610 1191-609L1191-609Q1170-607 1158-606.50Q1146-606 1144-606L1144-606Q1124-606 1107-619L1107-619Q1083-640 1082-672L1082-672Q1087-681 1097-682L1097-682Q1123-678 1148-678L1148-678L1297-687Q1294-713 1284-739L1284-739Q1279-748 1272-756Q1265-764 1265-775L1265-775Q1267-794 1306-794L1306-794Q1356-794 1367-762L1367-762Q1374-729 1377-694L1377-694L1405-693L1433-694Q1462-697 1490-697L1490-697L1605-705Q1613-730 1613-756L1613-756L1612-771L1607-796Q1607-803 1614-810L1614-810L1629-811Q1653-811 1675-797L1675-797Q1687-791 1695.50-782Q1704-773 1704-762L1704-762L1703-755L1687-709L1721-710Q1738-712 1754-712Q1770-712 1785.50-714Q1801-716 1817-717L1817-717Q1841-722 1864-723L1864-723Q1894-714 1911-689L1911-689Q1914-683 1914-676Q1914-669 1914-662L1914-662Q1903-651 1888-649Q1873-647 1858-646L1858-646L1668-636Q1663-636 1657.50-634.50Q1652-633 1650-628L1650-628Q1634-590 1603-562L1603-562Q1596-559 1590-559L1590-559Q1582-559 1574-564L1574-564L1573-577Q1573-587 1586-629L1586-629L1565-630Q1549-630 1533-628L1533-628Q1507-625 1480-625L1480-625L1426-621L1416-622Q1402-622 1388-617L1388-617L1395-575Q1390-550 1366-550ZM1295 89L1282 90Q1260 90 1241.50 76.50Q1223 63 1223 45L1223 45Q1230-18 1230-99L1230-99Q1230-123 1231.50-146.50Q1233-170 1233-194L1233-194Q1156-130 1067-85L1067-85Q1058-82 1048-82L1048-82Q1030-82 1030-99L1030-99Q1030-113 1050-127L1050-127Q1150-200 1231-290L1231-290Q1233-296 1233-303L1233-303Q1233-313 1226-324.50Q1219-336 1219-350L1219-350L1219-356Q1225-364 1234.50-364.50Q1244-365 1253-364L1253-364L1284-353Q1302-361 1353-438L1353-438Q1306-437 1258-434L1258-434Q1235-433 1221-431.50Q1207-430 1202-430L1202-430Q1161-430 1138-475L1138-475Q1135-481 1135-487L1135-487Q1135-504 1149-506L1149-506Q1166-506 1179.50-504.50Q1193-503 1201-503L1201-503Q1233-503 1398-514L1398-514Q1409-527 1415-544L1415-544Q1425-565 1425-586.50Q1425-608 1437-616L1437-616Q1462-616 1481.50-601.50Q1501-587 1514-567L1514-567L1515-559Q1515-551 1509-541.50Q1503-532 1500-520L1500-520Q1605-525 1711-532L1711-532Q1755-532 1797-541L1797-541L1806-542Q1835-542 1862-504L1862-504Q1865-497 1865-491L1865-491Q1865-481 1856-473L1856-473Q1828-465 1799-465L1799-465L1464-445Q1456-445 1451.50-438.50Q1447-432 1443-425L1443-425Q1394-353 1333-289L1333-289Q1319-277 1313-259L1313-259L1312 58Q1312 67 1308.50 76Q1305 85 1295 89L1295 89ZM1651 100L1637 101Q1616 101 1574 78L1574 78Q1519 44 1473-2L1473-2Q1464-11 1464-29L1464-29Q1473-37 1483-37L1483-37Q1491-37 1499-33L1499-33Q1587 11 1616 11L1616 11Q1618-16 1618-42L1618-42Q1618-86 1612-129L1612-129L1574-128Q1555-126 1533.50-126Q1512-126 1488.50-123.50Q1465-121 1441-121L1441-121Q1420-121 1408-120Q1396-119 1395-119L1395-119Q1374-119 1357-131L1357-131Q1336-158 1335-191L1335-191Q1340-195 1344-200L1344-200Q1376-193 1409-193L1409-193Q1431-193 1453-196L1453-196Q1486-196 1519.50-198.50Q1553-201 1586-201L1586-201Q1584-213 1575.50-222.50Q1567-232 1564-244L1564-244L1563-252Q1563-262 1571-270L1571-270Q1588-288 1614-288L1614-288L1630-287Q1661-309 1688-336L1688-336L1515-321Q1505-319 1496-319L1496-319Q1479-319 1462-326L1462-326Q1436-345 1425-375L1425-375Q1425-384 1429-393L1429-393Q1437-397 1445-397L1445-397Q1452-397 1459-394L1459-394Q1470-392 1482-392L1482-392L1499-393Q1513-395 1680-407L1680-407Q1702-407 1718.50-409.50Q1735-412 1746-412L1746-412Q1799-412 1813-372L1813-372Q1813-354 1788-334L1788-334Q1736-275 1670-230L1670-230Q1666-225 1666-220L1666-220Q1666-205 1687-205L1687-205Q1708-208 1715-208L1715-208Q1738-208 1761.50-210.50Q1785-213 1809-213L1809-213Q1847-213 1885-223L1885-223L1895-224Q1906-224 1916-218L1916-218Q1952-199 1955-170L1955-170Q1955-164 1953-158L1953-158Q1938-141 1692-133L1692-133Q1699-88 1699-44L1699-44Q1699-7 1694 29L1694 29Q1691 51 1681.50 71Q1672 91 1651 100L1651 100Z" />
</svg>
